<svg xmlns="http://www.w3.org/2000/svg" xmlns:xlink="http://www.w3.org/1999/xlink" id="Layer_1" x="0px" y="0px" viewBox="0 0 594.6 351.9" style="enable-background:new 0 0 594.6 351.9;" xml:space="preserve"><style type="text/css">	.st0{fill:#F0F6FA;}	.st1{fill:#D6D8F8;}	.st2{fill:#E4F1FF;}	.st3{fill:#4073F8;}	.st4{fill:#91E70C;}	.st5{fill:#EFEFEF;}	.st6{fill:#6A6EF5;}	.st7{fill:#C091FF;}	.st8{fill:#ED51FB;}	.st9{fill:#263238;}	.st10{fill:#EF8A7D;}	.st11{fill:#20363C;}	.st12{fill:#9B49F2;}	.st13{fill:#F7CFB1;}	.st14{fill:#FFB841;}	.st15{fill:#111D3D;}	.st16{fill:#1F3668;}	.st17{fill:#4F1A44;}	.st18{fill:#FFFFFF;}	.st19{fill:#E57367;}	.st20{fill:#5A62EE;}	.st21{fill:#E6ECF5;}</style><g>	<path class="st0" d="M560.9,348.4c0,0,49.5-86.5,17-175c-47.4-128.9-107.4-6-104.6-97.1s-103.9-81-147.1-54.5  C283,48.2,284.5,71.6,195.3,61.1C106,50.6,87.3,116.4,105,178.9c20.8,73.5-98.8,72.6-22.3,169.6L560.9,348.4z"></path>	<g>		<g>			<path class="st1" d="M143.7,279.4V295c0,14.3,3.6,21.2,13.3,21.2c9.9,0,12.3-9.9,12.3-20.6c0-20.9-4-26.8-26.5-45.7    c-25.2-21.2-37.8-33.8-37.8-66.3c0-31.5,10.3-60.7,52.4-60.7c44.4,0,51,30.5,51,55.7v12.6h-40.1V178c0-13.3-2.3-19.9-10.6-19.9    c-8,0-10.6,6.6-10.6,19.2c0,13.3,2.7,19.9,20.9,34.1c32.5,25.5,44.1,40.1,44.1,76.2c0,34.8-11.9,63.3-55.7,63.3    c-42.1,0-54.4-25.5-54.4-58.3v-13.3H143.7z"></path>			<path class="st1" d="M344.9,277.1c0-34.1,0.3-82.5,1-109.7h-1.3c-4.6,44.1-14.3,133.6-20.2,180.3h-36.1    c-5-48.4-14.6-139.6-19.2-181h-1.3c0.7,25.9,1.7,73.9,1.7,112v68.9h-38.5V126.6h61c5.6,42.1,12.3,97.1,14.9,127.3h0.7    c3.6-32.2,10.9-78.6,17.6-127.3h61v221.1h-41.1V277.1z"></path>			<path class="st1" d="M444.7,279.4V295c0,14.3,3.6,21.2,13.3,21.2c9.9,0,12.3-9.9,12.3-20.6c0-20.9-4-26.8-26.5-45.7    c-25.2-21.2-37.8-33.8-37.8-66.3c0-31.5,10.3-60.7,52.4-60.7c44.4,0,51,30.5,51,55.7v12.6h-40.1V178c0-13.3-2.3-19.9-10.6-19.9    c-8,0-10.6,6.6-10.6,19.2c0,13.3,2.7,19.9,20.9,34.1c32.5,25.5,44.1,40.1,44.1,76.2c0,34.8-11.9,63.3-55.7,63.3    c-42.1,0-54.4-25.5-54.4-58.3v-13.3H444.7z"></path>		</g>	</g>	<g>		<g>			<g>				<path class="st2" d="M109,322.3h81.5v-32.3h-81.9c-8.8,0-16,7.2-16,16v0C92.6,315,100,322.3,109,322.3z"></path>				<path class="st3" d="M19.6,303.2v4.9c0,2.6,0.7,5,1.8,7.1c2.3,4.2,6.6,7,11.4,7h160.3c1.1,0,1.9-0.9,1.9-2.1v-0.7     c0-1.1-0.9-2.1-1.9-2.1H95.4c-0.5-0.7-1-1.4-1.4-2.2c-0.9-1.8-1.4-3.9-1.4-6.2v-6.2c0-1.1,0.1-2.2,0.4-3.3     c0.4-1.8,1.2-3.4,2.3-4.8h97.9c1.1,0,1.9-0.9,1.9-2.1V292c0-1.1-0.9-2.1-1.9-2.1H32.1c-5.7,0-10.5,4.1-12,9.6     C19.8,300.7,19.6,302,19.6,303.2z"></path>				<path class="st3" d="M20.1,299.6H93c0.4-1.8,1.2-3.4,2.3-4.8h97.9c1.1,0,1.9-0.9,1.9-2.1V292c0-1.1-0.9-2.1-1.9-2.1H32.1     C26.4,289.9,21.6,294,20.1,299.6z"></path>			</g>			<polygon class="st3" points="190.5,306.1 178.7,306.7 190.5,307    "></polygon>			<polygon class="st3" points="190.5,311.2 162.3,311.7 190.5,312.1    "></polygon>		</g>		<g>			<g>				<g>					<path class="st4" d="M193.2,347.4h-82.7v-25.2H194c6.7,0,12.2,5.5,12.2,12.2l0,0C206.1,341.6,200.3,347.4,193.2,347.4z"></path>					<path class="st5" d="M113.6,347.4H19.3v-25.2h94.6c6.9,0,12.4,5.6,12.4,12.4v0C126.3,341.7,120.6,347.4,113.6,347.4z"></path>					<path class="st4" d="M132.5,347.4H16.2c-1,0-1.9-0.8-1.9-1.9l0,0c0-1,0.8-1.9,1.9-1.9h116.3c1,0,1.9,0.8,1.9,1.9v0      C134.4,346.5,133.5,347.4,132.5,347.4z"></path>					<path class="st4" d="M132.5,326H16.2c-1,0-1.9-0.8-1.9-1.9l0,0c0-1,0.8-1.9,1.9-1.9h116.3c1,0,1.9,0.8,1.9,1.9l0,0      C134.4,325.1,133.5,326,132.5,326z"></path>				</g>				<polygon class="st4" points="19.3,334.8 32.3,335.2 19.3,335.5     "></polygon>				<polygon class="st4" points="19.3,329 50.2,329.4 19.3,329.7     "></polygon>			</g>			<g>				<path class="st6" d="M49.9,329.3c0,0-1.3,1.1-1.8,2.9c-0.1,0.3-0.1,0.6-0.1,1c-0.1,2.4,0,7.7,0,7.7l-3.9-2.7l-3.9,2.7v-7.2     c0-1.4,0.3-2.7,1-3.6c0.3-0.4,0.7-0.7,1.1-0.7H49.9z"></path>				<path class="st6" d="M49.9,329.3c0,0-1.3,1.1-1.8,2.9l-7.8,0.1c0,0,0.3-2.5,1.9-3H49.9z"></path>			</g>		</g>		<g>			<g>				<g>					<path class="st2" d="M126,290h77.1v-37h-77.5c-10.1,0-18.3,8.2-18.3,18.3v0C107.4,281.6,115.7,290,126,290z"></path>					<path class="st7" d="M107.3,267.4v8c0,3.4,1.6,6.3,3.9,7.9c1.1,0.8,2.5,1.2,3.9,1.2h90.6c1.1,0,1.9,1,1.9,2.3v0.9      c0,1.3-0.9,2.3-1.9,2.3H49.2c-4.5,0-8.5-2.7-10.9-6.7c-1.5-2.6-2.4-5.7-2.4-9.1v-6.3c0-2.3,0.4-4.5,1.2-6.5      c2-5,6.3-8.4,11.2-8.4h157.2c1.1,0,1.9,1,1.9,2.3v0.9c0,1.3-0.9,2.3-1.9,2.3h-90.8c-2.2,0-4.1,1.1-5.5,2.9      C108.1,263,107.3,265.1,107.3,267.4z"></path>					<path class="st7" d="M207.5,286.8v0.9c0,1.3-0.9,2.3-1.9,2.3H49.2c-4.5,0-8.5-2.7-10.9-6.7h72.9c1.1,0.8,2.5,1.2,3.9,1.2h90.6      C206.7,284.5,207.5,285.5,207.5,286.8z"></path>				</g>				<polygon class="st7" points="203.1,271.5 191.5,272.2 203.1,272.5     "></polygon>				<polygon class="st7" points="203.1,263 175.5,263.6 203.1,264     "></polygon>			</g>			<g>				<path class="st8" d="M121.7,263.5c0,0,1.8,1.2,2.4,3.1c0.1,0.3,0.2,0.7,0.2,1.1c0.1,2.6,0,8.4,0,8.4l5.4-2.9l5.4,2.9v-7.9     c0-1.5-0.5-2.9-1.3-3.9c-0.4-0.5-0.9-0.8-1.5-0.8H121.7z"></path>				<path class="st8" d="M121.7,263.5c0,0,1.8,1.2,2.4,3.1l10.8,0.1c0,0-0.4-2.8-2.6-3.2H121.7z"></path>			</g>		</g>	</g>	<g>		<path class="st9" d="M310.1,334.7c0,0-2.9,2.6-2.3,4.5c0.6,1.9,3.1,3.1,3.5,5.3c0.3,2.3,1.7,3.5,3,3.5c1.3,0,6,0,6,0   s0.9-1.6-1.3-2.1c-2.2-0.5-3.1-3.1-2.9-5.6c0.1-2.5-0.2-5.8-0.2-5.8l-4.7-1.1L310.1,334.7z"></path>		<path class="st9" d="M337.4,335.8c0,0-1,11,0.2,11.7l16,0c0,0,0-1.9-2.6-2.3c-2.6-0.4-7.1-1.9-7.9-5.3   C342.4,336.6,337.4,335.8,337.4,335.8z"></path>		<path class="st10" d="M360.5,252.7c0,0,1.2,5.5,0.9,7c-0.4,1.5-4.2,3.9-5.7,3.5c-1.4-0.4-0.2-8,2.3-9.2   C360.5,252.7,360.5,252.7,360.5,252.7z"></path>		<path class="st11" d="M328.2,202c-0.7-1.4,15.3-6.2,15.6,7.1c0,0,30-0.7,15.7-17.5c-5-5.8-4.4-10.6-4.3-15   c0.2-4.5-3.1-17.4-14.2-16.1c0,0-2.9-1.2-6.5,0.7C326.1,165.5,307.7,206.9,328.2,202z"></path>		<path class="st12" d="M349.9,192.5c0,0,6.1,1.1,7.5,6.3c1.4,5.2,3.7,23.4,3.8,31.5c0.2,7.2,0.2,24.6,0.2,24.6s-2.3,1.2-5.7,0   l-7-35.7L349.9,192.5z"></path>		<path class="st13" d="M355.6,243.9c0,0-1.2-19.9-0.2-29.6c0.8-7.8-9,15-8.3,19.2C347.8,237.5,355.6,243.9,355.6,243.9z"></path>		<path class="st12" d="M321.6,207.5c0,0-0.3,4,0,8.7c0.2,3.2,3.4,7.4,3.8,8.4c1.1,2.6,2.4,3,2.4,3l9.9,2.4l3.5,0.9l11-3.3   c0,0,5-14,3-21.8c-2-7.9-5.1-13.3-5.1-13.3s-7.5-1.8-20.7-0.7L321.6,207.5z"></path>		<path class="st14" d="M324.5,217.4c0.2,3.2,0.5,6.1,0.9,7.1c1.1,2.6,2.4,3,2.4,3l9.9,2.4l4.3-1.3c0,0-14.4-2.2-12.8-14.5   L324.5,217.4z"></path>		<path class="st15" d="M351.5,229.7c0,0,5.4,16.9,5.8,22.7c0.3,5.8-10.4,82-10.8,84.6c-0.4,2.5-3.5,4.1-3.5,4.1s-1.4,0.8-3.5,0.3   c-2.8-0.8-3.7-1.8-3.7-1.8s-4.2-54.3-1.6-73.8c2.6-19.4,2.7-36.2,2.7-36.2H351.5z"></path>		<path class="st16" d="M328.5,229.2c0,0-8.3,11.1-9.1,18.7c-0.8,7.5-1.2,34-2.9,41.3c-1.6,7.3-6.4,22.6-6.4,45.5c0,0,5.8,4.5,6.5,3   c4.1-8.3,18.1-38.2,18.8-43.8c0.5-3.9,4.6-29.8,13.6-45c2.2-3.6-1.3-18.1-1.3-18.1L328.5,229.2z"></path>		<path class="st17" d="M352.4,227.1c0,0-2.2,1.7-6.5,1.8c-5.2,0.1-18-1.3-18-1.3s-0.6,1.6-0.5,3.3c0,0,15.7,4,24.8,0.6   C352.1,231.5,353.2,229.3,352.4,227.1z"></path>		<g>			<path class="st18" d="M344.7,230.7c0-1.5,1.1-2.7,2.4-2.7c1.3,0,2.4,1.2,2.4,2.7c0,1.5-1.1,2.7-2.4,2.7    C345.8,233.4,344.7,232.2,344.7,230.7z M345.5,230.7c0,1,0.7,1.9,1.6,1.9c0.9,0,1.6-0.8,1.6-1.9c0-1-0.7-1.9-1.6-1.9    C346.2,228.8,345.5,229.7,345.5,230.7z"></path>		</g>					<rect x="317.9" y="211.6" transform="matrix(-0.7542 -0.6567 0.6567 -0.7542 427.8045 612.4948)" class="st8" width="21.3" height="29.2"></rect>		<path class="st10" d="M331.5,230.2c0,0,6.3,0.6,6.3,2c0,1.4-2,3.8-2.9,3.8c-2.1,0-4.5-3.2-4.5-3.2L331.5,230.2z"></path>		<path class="st12" d="M329.5,191.8c0,0-7.9,0.5-10.9,7.8c-3,7.3-8.7,19.6-8.7,21.7c0,2.1,3.2,8.5,20.4,12.1c0,0,1.8-1.9,1.7-3.3   c0,0-10.7-9.2-10.7-10.3c0.1-2,1.8-4.7,11.2-14.1C334.9,203.1,329.5,191.8,329.5,191.8z"></path>		<path class="st10" d="M332.4,230.4c0,0,1.4-0.3,2.4-0.3c0.9,0,2.1-0.2,2.1,0.1c0,0.6-1.9,0.8-1.9,1   C334.9,231.5,332.4,230.4,332.4,230.4z"></path>		<g>			<path class="st10" d="M334,191.6c0.6-1.1,2.3-6.7,2.3-9.6l0.5,0.1l8.4,1.4c0,0-0.2,2.2-0.2,4.3c0,0,0,0,0,0.1c0,1.8,0,2.7-0.3,5    c-0.2,1,0.2,8.3-3.3,7.8C340,200.5,333.6,192.3,334,191.6z"></path>			<path class="st19" d="M345.1,183.5c0,0-0.2,2.2-0.2,4.3c-4.7-0.1-7.2-3.7-8.2-5.7L345.1,183.5z"></path>			<path class="st10" d="M346.7,186.1c0,0-11.1,0.2-11.1-6.7c0-6.9-1.4-11.5,5.6-11.9c7.1-0.4,8.5,2.2,9,4.5    C350.8,174.2,349.6,185.8,346.7,186.1z"></path>			<path class="st11" d="M346.3,167.2c0,0-3,8.1-7.7,9.3c-4.7,1.2-6.7-0.1-6.7-0.1s3.6-2.8,4.3-7.8    C336.2,168.7,344,163.4,346.3,167.2z"></path>			<path class="st11" d="M345.5,167.9c0,0,2.3,0.8,3.2,2.5c0.9,1.6,1.7,3.7,1.5,6.3c0,0,2.3-5.5-0.3-8.6    C347.2,164.8,345.5,167.9,345.5,167.9z"></path>		</g>		<path class="st18" d="M342.2,200.8c0,0-7.2-7.9-7.5-11.1c0,0-2,0.2-4,2c0,0,1.6,5.2,3.7,6.7c0,0,1.5-0.2,2.7-0.7   c0,0-0.8,1.3-1.4,2C335.8,199.6,339.1,201.5,342.2,200.8z"></path>		<path class="st18" d="M344.9,190.1c0,0-0.1,4.5-2.7,10.7c0,0,3.4-0.7,5.2-3.1c0,0-0.6-1.3-1-1.6c0,0,1-0.4,1.7,0.2   c0,0,0.4-2.8,0-3.7C347.6,191.7,345.9,190.8,344.9,190.1z"></path>		<path class="st18" d="M341.7,200.8c0-0.3,0.2-0.5,0.5-0.5c0.3,0,0.5,0.2,0.5,0.5c0,0.3-0.2,0.5-0.5,0.5   C341.9,201.3,341.7,201.1,341.7,200.8z"></path>		<path class="st18" d="M344.6,208.5c0-0.3,0.2-0.5,0.5-0.5c0.3,0,0.5,0.2,0.5,0.5c0,0.3-0.2,0.5-0.5,0.5   C344.9,209,344.6,208.8,344.6,208.5z"></path>		<path class="st18" d="M345.2,217.6c0-0.3,0.2-0.5,0.5-0.5c0.3,0,0.5,0.2,0.5,0.5c0,0.3-0.2,0.5-0.5,0.5   C345.5,218.1,345.2,217.9,345.2,217.6z"></path>	</g>	<g>		<path class="st12" d="M231.7,121.4c0,0-1,11.4,1.6,11.3c2.6-0.2,7.8-5.2,18.1-4.4c10.4,0.8,23.1,3.1,30.8-10.5   c7.7-13.6-9.8-17.5-9.8-17.5L231.7,121.4L231.7,121.4z"></path>		<polygon class="st7" points="253.8,120.5 201.4,124.8 200.3,122.5 250.5,85.5 301.2,79.5 302.2,81.6 253.8,120.5   "></polygon>		<g>			<path class="st12" d="M218.1,160c0.3-1.1,1.4-1.7,2.5-1.4c1.1,0.3,1.7,1.4,1.4,2.5c-0.3,1.1-1.4,1.7-2.5,1.4    C218.5,162.2,217.8,161,218.1,160L218.1,160z"></path>			<path class="st12" d="M219.9,160.5c-2.1-0.2-2.6,18.9-2.6,18.9s1.4,0.6,2,0.5c0.7-0.2,1-2.7,1-2.7l0.1,2.7c0,0,2.3,0.1,3.1-0.5    C223.5,179.5,223.2,160.8,219.9,160.5L219.9,160.5z"></path>		</g>		<polygon class="st12" points="219.2,161 219.6,119.2 219.9,119 247.2,98.8 248.2,100.1 221.1,120.1 220.5,160.9   "></polygon>	</g>	<g>		<path class="st9" d="M550.7,347.7c0,0,0-3.2-0.5-4.2c-0.5-1.1-2.1-5.3-2.1-5.3h-6.5c0,0-1.2,3.9-1.3,5.2c-0.1,1.3,0,4.4,0,4.4   H550.7z"></path>		<path class="st9" d="M509.6,347.7c0,0,0-3.2,0.5-4.2c0.5-1.1,2.1-5.3,2.1-5.3h6.5c0,0,1.2,3.9,1.3,5.2c0.1,1.3,0,4.4,0,4.4H509.6z   "></path>		<path class="st10" d="M535.5,169.9c0,0,0.2,7.1,1.1,10.2l7.1,5l-26.9,4l6.4-8.9c0,0,1.9-9.5,0.9-13   C523.2,163.8,535.5,169.9,535.5,169.9z"></path>		<path class="st19" d="M535.6,170.9c0,0-2.1,5.1-6.1,5c-4-0.1-4.9-4.6-4.9-4.6L535.6,170.9z"></path>		<path class="st11" d="M538,166.7c0,0,1.3-6.5,2.2-8.4c0.9-2,1.7-10.7-8.4-11.1c0,0-3.8,0.5-5.9-0.8c0,0,0,1.3,0.5,1.7   c0,0-3.5-0.8-6.2,2.2c-2.7,3,1.8,13.5,1.6,16L538,166.7z"></path>		<path class="st10" d="M529.9,173.9c2.9-0.1,8.2-3.9,8.2-8.7v-7.5c0-1.7-1.2-3.2-2.7-3.2h-11.1c-1.5,0-2.7,1.4-2.7,3.2v7   C521.7,169.8,526.6,173.9,529.9,173.9z"></path>		<path class="st11" d="M538.2,161.7c0,0,0-4.5-3.6-5.2c-3.6-0.7-11.5,2.2-12.6-1.1c-1.1-3.3,15.4-3.2,16.2-1.1   C539,156.4,538.2,161.7,538.2,161.7z"></path>		<path class="st16" d="M549.9,238c0,0-1.1,34.6,0.6,54.3c1.7,19.7,0,47.2,0,47.2s-5.4,3-11.3,0c0,0-6.4-38.1-6.4-47.2   c0-9.7-7-52.8-7-52.8L549.9,238z"></path>		<path class="st16" d="M509.9,339.5c0,0,5.4,3,11.3,0c0,0,6.4-38.1,6.4-47.2c0-4.1,1.2-14.1,2.7-24.4c2-14,4.3-28.4,4.3-28.4   l-25.1-1.6c0,0,2.1,34.6,0.4,54.4C508.1,312,509.9,339.5,509.9,339.5z"></path>		<path class="st6" d="M509.8,243.7c0,0,10.7,2.1,20.4,2.1c4.3,0,8.9-0.5,12.6-1c4.1-0.5,7-1.1,7-1.1s2.2,0.2,0.9-10.5   c-1-8.1-0.7-15.5-0.5-23c0-0.8,0-1.8,0-2.9c-0.4-8.8-3.1-24.7-5.1-25.5c0,0-3-1.1-8.4-1.7c0,0.1-3.1,4.6-6.8,5.1   c-2.3-0.9-4.1-1.7-6.6-5c-3.2,0.4-6.6,1-10.3,2c0,0-0.4,1.7-1.8,30.8C510.6,224.6,506.7,243.8,509.8,243.7z"></path>		<path class="st15" d="M527.5,292.3c0-4.1,1.2-14.1,2.7-24.4c-1.5-6.1-5.2-12-5.2-12C520.4,268.9,527.5,292.3,527.5,292.3z"></path>		<path class="st6" d="M560.1,216.5c0.3,0.2-0.6,2.4-1.9,5.3c-2.7,5.9-7.2,14.6-7.2,14.6c0.6,2.5,1.4,4,1.4,4   c7.5-5.9,12.4-11,15.5-14.8c4.4-5.4,5.3-8.5,5.3-8.5c-16.8-34.1-28.6-35.4-28.6-35.4l1.4,22.6   C545.9,204.1,559.3,215.8,560.1,216.5z"></path>		<path class="st10" d="M551.8,236.8c0,0-4.1-3.8-5.7-1.7c-1.7,2.1-2,5.4-0.7,5.2c1.3-0.2,3.9-1.4,4.3-0.8c0.4,0.6,2.1,1.8,2.6,0.8   C552.8,239.4,551.8,236.8,551.8,236.8z"></path>		<path class="st10" d="M550.9,236.4c0.6,2.5,1.4,4,1.4,4c7.5-5.9,12.4-11,15.5-14.8c-2.3-0.2-5.7-1-9.7-3.8   C555.4,227.6,550.9,236.4,550.9,236.4z"></path>		<path class="st6" d="M486.2,217c0,0,0.9,3.1,5.3,8.5c3.1,3.9,8,8.9,15.5,14.8c0,0,0.7-1.5,1.4-4c0,0-4.5-8.7-7.2-14.6   c-1.3-2.9-2.2-5.1-1.9-5.3c0.6-0.5,8.8-7.6,12.5-10.8c1.1-0.9,1.7-1.5,1.7-1.5l0.8-22.2C514.2,181.9,502.9,182.8,486.2,217z"></path>		<path class="st10" d="M507.4,236.8c0,0,4.1-3.8,5.7-1.7c1.7,2.1,2,5.4,0.7,5.2c-1.3-0.2-3.9-1.4-4.3-0.8c-0.4,0.6-2.1,1.8-2.6,0.8   C506.4,239.4,507.4,236.8,507.4,236.8z"></path>		<path class="st10" d="M508.3,236.4c-0.6,2.5-1.4,4-1.4,4c-7.5-5.9-12.4-11-15.5-14.8c2.3-0.2,5.7-1,9.7-3.8   C503.8,227.6,508.3,236.4,508.3,236.4z"></path>		<path class="st20" d="M536.3,178.4c0,0,1.2,0.5,1.5,1.9c0,0-4.8,4.9-7.9,5L536.3,178.4z"></path>		<path class="st20" d="M529.9,185.2l-6.2-7.1c0,0-1.3,0.8-1.3,2.2C522.5,180.4,527.2,185.4,529.9,185.2z"></path>		<path class="st18" d="M531,184.7c0,0,4.7,40.8,3.1,45.7c-0.8,2.6-2,4.8-2.9,6.3c-0.6,1.1-2.3,1.1-2.9,0c-1.3-2.2-2.9-5.3-2.9-6.9   c0-2.6,3.6-45.1,3.6-45.1L531,184.7z"></path>		<path class="st18" d="M532.3,182.7c0,0-2.9-0.3-4.6-0.1c-0.3,0-0.5,0.4-0.4,0.7c0.5,0.9,1.5,2.4,2.5,2.4   C531.3,185.7,533.6,182.8,532.3,182.7z"></path>		<path class="st18" d="M532.2,169.1c0,0-0.9,1.2-2.5,1.2c-1.6,0-2.3-1.2-2.3-1.2S530.1,168.6,532.2,169.1z"></path>	</g>	<g>		<g>			<path class="st10" d="M145.2,295.5c-0.5,0.6-0.6,1.3-0.3,2c0,0,0,0,0,0c0.5,1.3,2.1,2.8,3.9,4.2c0.2,0.2,0.4,0.4,0.6,0.5    c0,0,0.1,0.1,0.1,0.1c0,0,0.1,0.1,0.1,0.1c1.7,1.6,1.1,1.9,4.2,5.1c3.5,3.6,5.9,3.7,6.6,3.3c0.6-0.3-0.6-2.2-1.9-4.4    c-0.1-0.1-0.1-0.2-0.2-0.3c-0.2-0.3-0.4-0.6-0.5-0.9c-1.6-2.6-1.2-3.8-0.8-7.7c0.3-3.2,4.8-17.7,4.8-17.7l-6.7-1.1    c0,0-1.9,11.6-4.2,13.4c-1.2,1-2.5,1-3.7,1.7c-0.1,0-0.2,0.1-0.2,0.2C146.4,294.4,145.7,294.8,145.2,295.5z"></path>			<path class="st20" d="M145.2,295.5c-0.5,0.6-0.6,1.3-0.3,2c0,0,0,0,0,0c0.6,1.3,2.1,2.8,3.9,4.2c0.2,0.2,0.4,0.4,0.6,0.5    c0,0,0.1,0.1,0.1,0.1c0,0,0.1,0.1,0.1,0.1c1.7,1.6,1.1,1.9,4.2,5.1c3.5,3.6,5.9,3.7,6.6,3.3c0.6-0.3-0.6-2.2-1.9-4.4    c-0.7-0.2-3.9-1.5-6.3-4.6c-2.1-2.7-3.6-6.1-5-8.1c-0.1,0-0.2,0.1-0.2,0.2C146.4,294.4,145.7,294.8,145.2,295.5z"></path>			<path class="st10" d="M199.3,290.9c0.4,2.1,3.4,1.7,6.7,0.9c3.3-0.8,2.5,0.1,7.2-0.4c4.7-0.6,6.1-2.3,6.2-3    c0.1-0.6-2.2-0.8-4.7-1.1c-0.3,0-0.6-0.1-0.9-0.1c-2.8-0.3-4.9-2.1-7.4-3.6c-2.4-1.4-6.1-7.1-6.1-7.1l-6.4,0.6    c0,0,3.4,5.1,4.7,7.3c0.8,1.3,0.7,3,0.7,4.4C199.2,289.4,199.2,290.1,199.3,290.9z"></path>			<path class="st20" d="M206,291.7c3.3-0.8,2.5,0.1,7.2-0.4c4.7-0.6,6.1-2.3,6.2-3c0.1-0.6-2.2-0.8-4.7-1.1l0,0c0,0-2.8,2-6.7,2.1    c-3.2,0.1-6.6-0.8-8.8-0.7c0,0.7-0.1,1.5,0.1,2.2C199.8,292.9,202.7,292.6,206,291.7z"></path>			<path class="st15" d="M174.4,249.9l-5.9,16.2l-7.7,21.2c0,0-2.1,0.2-4.2-0.4c-1.9-0.5-4.1-1.9-4.1-1.9s2-22.7,6-35.8    c1-3.4,2.2-6.1,3.5-7.6C168.2,234.1,174.4,249.9,174.4,249.9z"></path>			<path class="st16" d="M168.1,224.2c-4-1.2-15.2,0.5-26.5,2.8l-2.4-3.9l-24.4-1.7c0,0-7.9,17.9-3.4,29.3c0.7,1.7,2.3,2.4,4.5,2.4    c0,0,0,0,0,0c0,0,14.6,0.3,19.3,0.2c12.1-0.1,25.6-8.5,27.4-8.9c2.9-0.6,4.1,5.1,7,11.1c2.9,6,27.2,26.5,27.2,26.5s3.7,0,5.2-0.6    c1.6-0.6,2.2-1.4,2.2-1.4S177,227,168.1,224.2z"></path>			<path class="st11" d="M136.1,151.4c-1.8-1.1-3.6-1.2-4.7-1.2c-0.8,0-1.6,0-2.3-0.1c-9.3-1.2-14.7,12.3-15,16.4    c-0.6,7.5-4.5,8.7-10.1,13.4c-11.1,9.5-7.8,20.4-1.6,24.5c3.7,2.4,10.2-0.1,10.2-0.1c0.1,0.1,17.7-10,26.3-14.8    C151.8,187.5,141.3,154.4,136.1,151.4z"></path>			<path class="st10" d="M131.5,185.4c0,0-4.3,1.5-7.2,0.3c-2.7-1.2-4.8-5.6-4.8-5.6c1.2-0.1,2.6-1.2,3.6-8.2l0.5,0.2l8.9,3.1    c0,0-0.6,2.8-1,5.5C131.2,182.9,131,185.1,131.5,185.4z"></path>			<path class="st19" d="M132.5,175.1c0,0-0.4,2-0.9,4.8c-5.1-0.9-7.2-5.2-8-8L132.5,175.1z"></path>			<path class="st10" d="M133.9,177.9c0,0-12.1-1.5-11-9.1c1.1-7.5,0.2-12.8,8-12.1c7.8,0.7,8.9,3.8,9.1,6.3    C140.2,165.6,137,178.1,133.9,177.9z"></path>			<path class="st11" d="M139.5,158.9c0,0-7.7,6.7-13,7.3c-5.3,0.6-7.3-1.1-7.3-1.1s3.1-2.6,4.9-6.8c0.5-1.2,1.7-2.1,3-2.2    C131,155.8,138.1,155.6,139.5,158.9z"></path>			<path class="st11" d="M134.6,158.4c0,0,2.6,2.5,3.4,4.3c0.8,1.8,1.1,6.1,0.5,7.8c0,0,4-7.9,1.7-11.7    C137.7,154.8,134.6,158.4,134.6,158.4z"></path>			<path class="st6" d="M141.8,203.1c-0.2,24.5,0,19.4-2.6,21.7c-0.6,0.6-2.5,0.9-4.8,1.1c-7.5,0.6-20.7-0.6-21.2-2    c-1.8-4.8-0.6-6.3-2.1-13.6c-0.2-0.8-0.3-1.6-0.6-2.5c-1.2-5-2.4-6.8,1.8-14.9c3.8-7.4,7.8-13.4,8.2-13.2    c10.3,6,11.1,0.9,11.1,0.9S141.9,191.2,141.8,203.1z"></path>			<path class="st15" d="M168.5,266.1l-7.7,21.2c0,0-2.1,0.2-4.2-0.4c-1.9-0.5-4.1-1.9-4.1-1.9s2-22.7,6-35.8L168.5,266.1z"></path>			<path class="st6" d="M131.5,180.6c0,0,10.5,1.7,11.8,6.2c1.3,4.5,8.7,31.1,8.7,31.1s-5.3,1-7.8-1.5c-2.5-2.5-8.8-22.9-8.8-22.9    L131.5,180.6z"></path>			<path class="st20" d="M134.3,225.9c-7.5,0.6-20.7-0.6-21.2-2c-1.8-4.8-0.6-6.3-2.1-13.6l3.6-10.2c0,0-0.5,11.4,2.9,14.3    c3.4,3,13.8,5.7,15.4,8.2C133.6,223.8,134.2,225,134.3,225.9z"></path>			<path class="st10" d="M125.7,221.2c0,0,7.4-1.7,8.6-1.1c1.2,0.6,4.1,3,4.5,3.9c0.4,0.8-2.7-0.6-3.7-0.9c-0.6-0.2-2.3,0.4-3.1,0.7    c-3.5,1.2-5.6,0.6-5.6,0.6L125.7,221.2z"></path>			<path class="st6" d="M120.4,179.7c0,0-9.9,0.7-13.4,5.5c-4.8,6.8-14.2,35.7-8.7,39.5c6.2,4.3,28.3,0.9,28.3,0.9s0.7-3.4-0.3-5.1    c-1-1.7-17.6-4.2-18.4-5c-0.8-0.8,9.5-15,9.4-17.3C117.4,196,120.4,179.7,120.4,179.7z"></path>			<path class="st10" d="M134.7,222.2c0,0,1.6,2,2.1,2.2c0.5,0.2,0.8,0.2,0.8,0.2l-1.1-1.9L134.7,222.2z"></path>			<path class="st10" d="M134.3,220.2l4.5,2.2c0,0-0.2,0.3-0.7,0.3c-0.6,0-2-0.5-2-0.5L134.3,220.2z"></path>		</g>		<g>			<g>				<polygon class="st16" points="135.8,227.7 171.5,227.4 182,200.7 146.4,200.9     "></polygon>				<polygon class="st15" points="171.9,226.4 124.7,226.7 124.7,227.8 171.5,227.4     "></polygon>			</g>			<path class="st8" d="M162.4,214.2c0.3-0.9-0.3-1.7-1.2-1.7c-0.9,0-1.9,0.8-2.2,1.7c-0.3,0.9,0.3,1.7,1.2,1.7    S162.1,215.1,162.4,214.2z"></path>		</g>	</g>	<path class="st9" d="M3.6,350.4l577.8-0.2c0.4,0,0.8-0.5,0.8-1.1l0-0.9c0-0.6-0.4-1.1-0.8-1.1L3.6,347.4c-0.4,0-0.8,0.5-0.8,1.1  l0,0.9C2.8,349.9,3.2,350.4,3.6,350.4z"></path>	<path class="st1" d="M438.7,77.7c0,0-4.3-11.8-14.6-10.5c0,0-15-19.7-31-2.6c0,0-17-4.2-29.6,3.7c-8.4,5.3-11.2,10.8-11.2,10.8  L438.7,77.7z"></path>	<path class="st1" d="M383.3,52.5c0,0-2.3-7-7.9-6.2c0,0-8.1-11.6-16.8-1.6c0,0-9.2-2.5-16,2.2c-4.5,3.1-6,6.4-6,6.4L383.3,52.5z"></path></g><g>	<g>		<path class="st3" d="M478.4,347.2h-84.7c-7.6,0-13.9-6.2-13.9-13.9v-60.9c0-7.6,6.2-13.9,13.9-13.9h84.7c7.6,0,13.9,6.2,13.9,13.9   v60.9C492.3,341,486.1,347.2,478.4,347.2z"></path>		<path class="st21" d="M384.2,277.1v64.2c0,0.8,0.7,1.5,1.5,1.5h100.8c0.8,0,1.5-0.7,1.5-1.5v-64.2c0-0.8-0.7-1.5-1.5-1.5H385.6   C384.8,275.7,384.2,276.3,384.2,277.1z"></path>		<circle class="st8" cx="387" cy="266" r="2.8"></circle>		<circle class="st1" cx="395.8" cy="266" r="2.8"></circle>		<circle class="st4" cx="404.6" cy="266" r="2.8"></circle>	</g>	<g>		<g>			<rect x="388.3" y="287.5" class="st4" width="45.1" height="6.2"></rect>			<rect x="388.3" y="297.9" class="st7" width="19.8" height="33"></rect>			<rect x="413.6" y="297.9" class="st12" width="19.8" height="33"></rect>		</g>		<g>			<g>				<rect x="438.7" y="287.5" class="st4" width="34.8" height="6.2"></rect>			</g>			<g>				<rect x="438.7" y="299.9" class="st8" width="45.1" height="6.2"></rect>			</g>			<g>				<g>					<rect x="438.7" y="324.8" class="st4" width="45.1" height="6.2"></rect>				</g>			</g>			<g>				<rect x="438.7" y="312.4" class="st1" width="12.6" height="6.2"></rect>				<rect x="457.9" y="312.4" class="st1" width="26" height="6.2"></rect>			</g>		</g>	</g></g></svg>